<svg xmlns="http://www.w3.org/2000/svg" width="1080" height="1920" viewBox="0 0 1080 1920" preserveAspectRatio="none" style="position:absolute;inset:0;pointer-events:none"><g stroke="{{ grid_color }}" fill="none" stroke-width="3"><rect x="0" y="0" width="1080" height="640" /><rect x="37" y="22" width="1007" height="596" /><rect x="104" y="62" width="872" height="517" /><rect x="191" y="113" width="698" height="414" /><rect x="294" y="174" width="492" height="292" /><rect x="411" y="244" width="258" height="153" /><line x1="0" y1="0" x2="432" y2="256" /><line x1="1080" y1="0" x2="648" y2="256" /><line x1="0" y1="640" x2="432" y2="384" /><line x1="1080" y1="640" x2="648" y2="384" /><line x1="108" y1="0" x2="454" y2="256" /><line x1="108" y1="640" x2="454" y2="384" /><line x1="216" y1="0" x2="475" y2="256" /><line x1="216" y1="640" x2="475" y2="384" /><line x1="324" y1="0" x2="497" y2="256" /><line x1="324" y1="640" x2="497" y2="384" /><line x1="432" y1="0" x2="518" y2="256" /><line x1="432" y1="640" x2="518" y2="384" /><line x1="540" y1="0" x2="540" y2="256" /><line x1="540" y1="640" x2="540" y2="384" /><line x1="648" y1="0" x2="562" y2="256" /><line x1="648" y1="640" x2="562" y2="384" /><line x1="756" y1="0" x2="583" y2="256" /><line x1="756" y1="640" x2="583" y2="384" /><line x1="864" y1="0" x2="605" y2="256" /><line x1="864" y1="640" x2="605" y2="384" /><line x1="972" y1="0" x2="626" y2="256" /><line x1="972" y1="640" x2="626" y2="384" /><line x1="0" y1="64" x2="432" y2="269" /><line x1="1080" y1="64" x2="648" y2="269" /><line x1="0" y1="128" x2="432" y2="282" /><line x1="1080" y1="128" x2="648" y2="282" /><line x1="0" y1="192" x2="432" y2="294" /><line x1="1080" y1="192" x2="648" y2="294" /><line x1="0" y1="256" x2="432" y2="307" /><line x1="1080" y1="256" x2="648" y2="307" /><line x1="0" y1="320" x2="432" y2="320" /><line x1="1080" y1="320" x2="648" y2="320" /><line x1="0" y1="384" x2="432" y2="333" /><line x1="1080" y1="384" x2="648" y2="333" /><line x1="0" y1="448" x2="432" y2="346" /><line x1="1080" y1="448" x2="648" y2="346" /><line x1="0" y1="512" x2="432" y2="358" /><line x1="1080" y1="512" x2="648" y2="358" /><line x1="0" y1="576" x2="432" y2="371" /><line x1="1080" y1="576" x2="648" y2="371" /><rect x="0" y="640" width="1080" height="640" /><rect x="37" y="662" width="1007" height="596" /><rect x="104" y="702" width="872" height="517" /><rect x="191" y="753" width="698" height="414" /><rect x="294" y="814" width="492" height="292" /><rect x="411" y="884" width="258" height="153" /><line x1="0" y1="640" x2="432" y2="896" /><line x1="1080" y1="640" x2="648" y2="896" /><line x1="0" y1="1280" x2="432" y2="1024" /><line x1="1080" y1="1280" x2="648" y2="1024" /><line x1="108" y1="640" x2="454" y2="896" /><line x1="108" y1="1280" x2="454" y2="1024" /><line x1="216" y1="640" x2="475" y2="896" /><line x1="216" y1="1280" x2="475" y2="1024" /><line x1="324" y1="640" x2="497" y2="896" /><line x1="324" y1="1280" x2="497" y2="1024" /><line x1="432" y1="640" x2="518" y2="896" /><line x1="432" y1="1280" x2="518" y2="1024" /><line x1="540" y1="640" x2="540" y2="896" /><line x1="540" y1="1280" x2="540" y2="1024" /><line x1="648" y1="640" x2="562" y2="896" /><line x1="648" y1="1280" x2="562" y2="1024" /><line x1="756" y1="640" x2="583" y2="896" /><line x1="756" y1="1280" x2="583" y2="1024" /><line x1="864" y1="640" x2="605" y2="896" /><line x1="864" y1="1280" x2="605" y2="1024" /><line x1="972" y1="640" x2="626" y2="896" /><line x1="972" y1="1280" x2="626" y2="1024" /><line x1="0" y1="704" x2="432" y2="909" /><line x1="1080" y1="704" x2="648" y2="909" /><line x1="0" y1="768" x2="432" y2="922" /><line x1="1080" y1="768" x2="648" y2="922" /><line x1="0" y1="832" x2="432" y2="934" /><line x1="1080" y1="832" x2="648" y2="934" /><line x1="0" y1="896" x2="432" y2="947" /><line x1="1080" y1="896" x2="648" y2="947" /><line x1="0" y1="960" x2="432" y2="960" /><line x1="1080" y1="960" x2="648" y2="960" /><line x1="0" y1="1024" x2="432" y2="973" /><line x1="1080" y1="1024" x2="648" y2="973" /><line x1="0" y1="1088" x2="432" y2="986" /><line x1="1080" y1="1088" x2="648" y2="986" /><line x1="0" y1="1152" x2="432" y2="998" /><line x1="1080" y1="1152" x2="648" y2="998" /><line x1="0" y1="1216" x2="432" y2="1011" /><line x1="1080" y1="1216" x2="648" y2="1011" /><rect x="0" y="1280" width="1080" height="640" /><rect x="37" y="1302" width="1007" height="596" /><rect x="104" y="1342" width="872" height="517" /><rect x="191" y="1393" width="698" height="414" /><rect x="294" y="1454" width="492" height="292" /><rect x="411" y="1524" width="258" height="153" /><line x1="0" y1="1280" x2="432" y2="1536" /><line x1="1080" y1="1280" x2="648" y2="1536" /><line x1="0" y1="1920" x2="432" y2="1664" /><line x1="1080" y1="1920" x2="648" y2="1664" /><line x1="108" y1="1280" x2="454" y2="1536" /><line x1="108" y1="1920" x2="454" y2="1664" /><line x1="216" y1="1280" x2="475" y2="1536" /><line x1="216" y1="1920" x2="475" y2="1664" /><line x1="324" y1="1280" x2="497" y2="1536" /><line x1="324" y1="1920" x2="497" y2="1664" /><line x1="432" y1="1280" x2="518" y2="1536" /><line x1="432" y1="1920" x2="518" y2="1664" /><line x1="540" y1="1280" x2="540" y2="1536" /><line x1="540" y1="1920" x2="540" y2="1664" /><line x1="648" y1="1280" x2="562" y2="1536" /><line x1="648" y1="1920" x2="562" y2="1664" /><line x1="756" y1="1280" x2="583" y2="1536" /><line x1="756" y1="1920" x2="583" y2="1664" /><line x1="864" y1="1280" x2="605" y2="1536" /><line x1="864" y1="1920" x2="605" y2="1664" /><line x1="972" y1="1280" x2="626" y2="1536" /><line x1="972" y1="1920" x2="626" y2="1664" /><line x1="0" y1="1344" x2="432" y2="1549" /><line x1="1080" y1="1344" x2="648" y2="1549" /><line x1="0" y1="1408" x2="432" y2="1562" /><line x1="1080" y1="1408" x2="648" y2="1562" /><line x1="0" y1="1472" x2="432" y2="1574" /><line x1="1080" y1="1472" x2="648" y2="1574" /><line x1="0" y1="1536" x2="432" y2="1587" /><line x1="1080" y1="1536" x2="648" y2="1587" /><line x1="0" y1="1600" x2="432" y2="1600" /><line x1="1080" y1="1600" x2="648" y2="1600" /><line x1="0" y1="1664" x2="432" y2="1613" /><line x1="1080" y1="1664" x2="648" y2="1613" /><line x1="0" y1="1728" x2="432" y2="1626" /><line x1="1080" y1="1728" x2="648" y2="1626" /><line x1="0" y1="1792" x2="432" y2="1638" /><line x1="1080" y1="1792" x2="648" y2="1638" /><line x1="0" y1="1856" x2="432" y2="1651" /><line x1="1080" y1="1856" x2="648" y2="1651" /></g></svg>