<svg xmlns="http://www.w3.org/2000/svg" width="1080" height="1920" viewBox="0 0 1080 1920" preserveAspectRatio="none" style="position:absolute;inset:0;pointer-events:none"><g stroke="{{ grid_color }}" fill="none" stroke-width="3"><line x1="0" y1="0" x2="0" y2="1920" /><line x1="108" y1="0" x2="108" y2="1920" /><line x1="216" y1="0" x2="216" y2="1920" /><line x1="324" y1="0" x2="324" y2="1920" /><line x1="432" y1="0" x2="432" y2="1920" /><line x1="540" y1="0" x2="540" y2="1920" /><line x1="648" y1="0" x2="648" y2="1920" /><line x1="756" y1="0" x2="756" y2="1920" /><line x1="864" y1="0" x2="864" y2="1920" /><line x1="972" y1="0" x2="972" y2="1920" /><line x1="1080" y1="0" x2="1080" y2="1920" /><path d="M0,0 Q540,144 1080,0" /><path d="M0,110 Q540,237.5 1080,110" /><path d="M0,214.5 Q540,326.4 1080,214.5" /><path d="M0,313.6 Q540,410.6 1080,313.6" /><path d="M0,407.3 Q540,490.2 1080,407.3" /><path d="M0,495.5 Q540,565.1 1080,495.5" /><path d="M0,578.2 Q540,635.5 1080,578.2" /><path d="M0,655.5 Q540,701.1 1080,655.5" /><path d="M0,727.3 Q540,762.2 1080,727.3" /><path d="M0,793.6 Q540,818.6 1080,793.6" /><path d="M0,854.5 Q540,870.4 1080,854.5" /><path d="M0,910 Q540,917.5 1080,910" /><path d="M0,960 Q540,960 1080,960" /><path d="M0,1010 Q540,1002.5 1080,1010" /><path d="M0,1065.5 Q540,1049.6 1080,1065.5" /><path d="M0,1126.4 Q540,1101.4 1080,1126.4" /><path d="M0,1192.7 Q540,1157.8 1080,1192.7" /><path d="M0,1264.5 Q540,1218.9 1080,1264.5" /><path d="M0,1341.8 Q540,1284.5 1080,1341.8" /><path d="M0,1424.5 Q540,1354.9 1080,1424.5" /><path d="M0,1512.7 Q540,1429.8 1080,1512.7" /><path d="M0,1606.4 Q540,1509.4 1080,1606.4" /><path d="M0,1705.5 Q540,1593.6 1080,1705.5" /><path d="M0,1810 Q540,1682.5 1080,1810" /><path d="M0,1920 Q540,1776 1080,1920" /></g></svg>